<svg width="59" height="57" viewBox="0 0 59 57" fill="none" xmlns="http://www.w3.org/2000/svg">
<g id="fontisto:doctor">
<path id="Vector" d="M18.4133 19.0953L18.7867 19.0673C18.9218 19.0543 19.0511 19.0117 19.1627 18.9437L19.16 18.946C19.5173 20.024 19.9547 21.158 20.5013 22.3457C21.2027 23.8997 21.8933 25.176 22.6667 26.408L22.56 26.2213C22.496 27.0707 22.4187 27.9433 22.3173 28.788C22.2729 29.2863 22.1574 29.7778 21.9733 30.251L21.9867 30.209C21.9547 30.2207 21.9093 35.0623 21.9093 35.0623C21.9103 36.5646 22.489 38.0229 23.5522 39.2025C24.6154 40.3821 26.1013 41.2144 27.7707 41.5653L27.824 41.5747C27.8981 41.4062 28.0287 41.2613 28.1986 41.1589C28.3684 41.0564 28.5697 41.0013 28.776 41.0007H30.3067C30.5111 41.0031 30.7101 41.0581 30.879 41.159C31.0478 41.2598 31.179 41.402 31.256 41.5677L31.2587 41.5747C32.9422 41.2341 34.4451 40.4063 35.5239 39.2252C36.6027 38.0441 37.1942 36.5789 37.2027 35.067C37.2027 35.067 37.1093 30.244 37.0613 30.2113C36.9024 29.7603 36.7935 29.2969 36.736 28.8277L36.7333 28.7927C36.64 27.9433 36.5787 27.0917 36.4907 26.226C37.1493 25.1853 37.84 23.9113 38.448 22.5977L38.5493 22.3503C39.096 21.1627 39.52 20.031 39.8907 18.9507C40.0002 19.0187 40.1278 19.0613 40.2613 19.0743H40.264L40.64 19.1023C41.0933 19.1443 41.4933 18.8177 41.5307 18.3113L41.936 13.8057V13.801C41.9358 13.6197 41.8601 13.4446 41.7232 13.3085C41.5863 13.1724 41.3975 13.0846 41.192 13.0613H41.1413C41.4965 10.7151 41.2765 8.32967 40.496 6.06366L40.5307 6.18266C39.7785 4.72133 38.6346 3.44035 37.1959 2.44839C35.7572 1.45644 34.0663 0.78281 32.2667 0.484656L32.1973 0.475323C31.3248 0.322251 30.4389 0.234821 29.5493 0.213989H29.4933C28.5628 0.228571 27.6359 0.320766 26.7253 0.489323L26.8213 0.475323C25.0226 0.767458 23.3301 1.43236 21.8853 2.41437C20.4406 3.39638 19.2857 4.66693 18.5173 6.11966L18.488 6.18266C17.7203 8.43993 17.5156 10.8152 17.888 13.1477L17.8773 13.0613C17.6713 13.0808 17.4807 13.1661 17.3419 13.3008C17.2032 13.4356 17.1261 13.6103 17.1253 13.7917V13.808L17.5307 18.3137C17.568 18.8317 17.9733 19.1443 18.4107 19.1023L18.4133 19.0953Z" fill="white"/>
<path id="Vector_2" d="M58.1093 48.9153C57.9227 41.8219 57.112 40.2166 56.6747 39.1293C56.5013 38.6929 56.36 35.7436 50.792 33.8303C47.3787 32.6543 42.9733 32.6309 39.2453 31.2519V35.0879C39.2415 37.0545 38.4561 38.9587 37.0238 40.4742C35.5915 41.9896 33.6015 43.0221 31.3947 43.3946L31.3333 43.4039C31.2934 43.6109 31.1716 43.799 30.9894 43.9355C30.8071 44.0719 30.5759 44.1481 30.336 44.1506H30.288V47.0439C30.288 48.4017 30.9044 49.7038 32.0016 50.6639C33.0988 51.6239 34.587 52.1633 36.1387 52.1633C37.6904 52.1633 39.1785 51.6239 40.2757 50.6639C41.3729 49.7038 41.9893 48.4017 41.9893 47.0439V45.0233C41.184 44.9199 40.4498 44.5619 39.9257 44.017C39.4017 43.472 39.124 42.7779 39.1453 42.0659C39.1666 41.3539 39.4854 40.6735 40.0413 40.1532C40.5973 39.633 41.3518 39.3091 42.1623 39.2427C42.9727 39.1764 43.7828 39.3723 44.4394 39.7933C45.0959 40.2143 45.5534 40.8312 45.7252 41.5274C45.897 42.2235 45.7713 42.9507 45.3718 43.5712C44.9724 44.1918 44.3268 44.6627 43.5573 44.8949L43.5333 44.9019V47.1536C43.5333 48.8703 42.754 50.5166 41.3667 51.7305C39.9794 52.9443 38.0979 53.6263 36.136 53.6263C34.1741 53.6263 32.2926 52.9443 30.9053 51.7305C29.518 50.5166 28.7387 48.8703 28.7387 47.1536V47.0369V47.0416V44.1226C28.5103 44.109 28.2939 44.0283 28.1245 43.8936C27.9551 43.759 27.8426 43.5782 27.8053 43.3806V43.3759C25.5961 43.0073 23.6021 41.9779 22.165 40.4642C20.7279 38.9504 19.9371 37.0465 19.928 35.0786V31.2123C16.184 32.6193 11.752 32.6473 8.32 33.8256C2.736 35.7366 2.608 38.6789 2.43733 39.1223C2.01066 40.2143 1.18933 41.8126 1.00266 48.9106C0.970664 49.8439 1.00266 51.2743 4.21866 52.5249C11.2213 54.9283 20.2427 55.6749 29.136 56.2116H29.9893C38.9013 55.6796 47.9093 54.9353 54.9067 52.5249C58.1093 51.2813 58.1387 49.8579 58.1093 48.9153ZM18.96 46.0219H15.6373V48.9409H13.264V46.0313H9.94133V43.9546H13.264V41.0473H15.6373V43.9546H18.96V46.0219Z" fill="white"/>
<path id="Vector_3" d="M44.2667 42.1183C44.2663 41.7019 44.077 41.3003 43.7403 41.0061C43.4036 40.7118 42.9472 40.5466 42.4713 40.5468C41.9955 40.5469 41.5392 40.7124 41.2027 41.0069C40.8663 41.3014 40.6773 41.7007 40.6773 42.1171C40.6773 42.5335 40.8663 42.9328 41.2027 43.2273C41.5392 43.5218 41.9955 43.6873 42.4713 43.6874C42.9472 43.6876 43.4036 43.5224 43.7403 43.2281C44.077 42.9338 44.2663 42.5346 44.2667 42.1183Z" fill="white"/>
</g>
</svg>
