<svg width="32" height="32" viewBox="0 0 32 32" fill="none" xmlns="http://www.w3.org/2000/svg">
<circle cx="16" cy="16" r="15" stroke="#AFAFDA" stroke-width="2.5"/>
<mask id="path-2-inside-1_2858_33481" fill="white">
<path d="M30.2203 16C31.2032 16 32.0102 15.2007 31.9011 14.2239C31.6374 11.8624 30.8499 9.58141 29.5872 7.55091C28.0102 5.01491 25.755 2.97086 23.0766 1.65004C20.3983 0.329212 17.4037 -0.215668 14.4317 0.0770444C11.4598 0.369757 8.62904 1.48838 6.25982 3.30635C3.89059 5.12432 2.07744 7.56907 1.0255 10.364C-0.0264334 13.1589 -0.275171 16.1925 0.307436 19.1214C0.890042 22.0504 2.28074 24.7579 4.32218 26.9375C5.95669 28.6826 7.95614 30.0336 10.1689 30.8996C11.0842 31.2578 12.0651 30.6852 12.3195 29.7357C12.5739 28.7863 12.0032 27.822 11.0998 27.4348C9.52483 26.7599 8.10014 25.7642 6.92008 24.5043C5.33279 22.8095 4.25147 20.7044 3.79848 18.427C3.34548 16.1497 3.53888 13.791 4.3568 11.6178C5.17472 9.44465 6.58451 7.54377 8.42666 6.13024C10.2688 4.7167 12.4698 3.84694 14.7806 3.61934C17.0914 3.39175 19.4198 3.81541 21.5023 4.8424C23.5848 5.86938 25.3384 7.4587 26.5646 9.43054C27.4761 10.8965 28.0692 12.5303 28.3135 14.2263C28.4536 15.1992 29.2374 16 30.2203 16Z"/>
</mask>
<path d="M30.2203 16C31.2032 16 32.0102 15.2007 31.9011 14.2239C31.6374 11.8624 30.8499 9.58141 29.5872 7.55091C28.0102 5.01491 25.755 2.97086 23.0766 1.65004C20.3983 0.329212 17.4037 -0.215668 14.4317 0.0770444C11.4598 0.369757 8.62904 1.48838 6.25982 3.30635C3.89059 5.12432 2.07744 7.56907 1.0255 10.364C-0.0264334 13.1589 -0.275171 16.1925 0.307436 19.1214C0.890042 22.0504 2.28074 24.7579 4.32218 26.9375C5.95669 28.6826 7.95614 30.0336 10.1689 30.8996C11.0842 31.2578 12.0651 30.6852 12.3195 29.7357C12.5739 28.7863 12.0032 27.822 11.0998 27.4348C9.52483 26.7599 8.10014 25.7642 6.92008 24.5043C5.33279 22.8095 4.25147 20.7044 3.79848 18.427C3.34548 16.1497 3.53888 13.791 4.3568 11.6178C5.17472 9.44465 6.58451 7.54377 8.42666 6.13024C10.2688 4.7167 12.4698 3.84694 14.7806 3.61934C17.0914 3.39175 19.4198 3.81541 21.5023 4.8424C23.5848 5.86938 25.3384 7.4587 26.5646 9.43054C27.4761 10.8965 28.0692 12.5303 28.3135 14.2263C28.4536 15.1992 29.2374 16 30.2203 16Z" stroke="#2C2C2c" stroke-width="10" mask="url(#path-2-inside-1_2858_33481)"/>
</svg>
