<svg width="56" height="57" viewBox="0 0 56 57" fill="none" xmlns="http://www.w3.org/2000/svg">
<g id="mingcute:save-line">
<g id="Group">
<path id="Vector" fill-rule="evenodd" clip-rule="evenodd" d="M14 4.86658C12.7623 4.86658 11.5753 5.35824 10.7002 6.23341C9.825 7.10858 9.33334 8.29557 9.33334 9.53324V46.8666C9.33334 48.1043 9.825 49.2912 10.7002 50.1664C11.5753 51.0416 12.7623 51.5332 14 51.5332H42C43.2377 51.5332 44.4247 51.0416 45.2998 50.1664C46.175 49.2912 46.6667 48.1043 46.6667 46.8666V15.1659C46.6664 13.9283 46.1746 12.7415 45.2993 11.8666L39.6667 6.23391C38.7917 5.35868 37.6049 4.86684 36.3673 4.86658H14ZM14 9.53324H36.3673L42 15.1659V46.8666H14V9.53324ZM37.8887 25.3836C38.1115 25.1683 38.2893 24.9109 38.4116 24.6262C38.5339 24.3415 38.5982 24.0353 38.6009 23.7255C38.6036 23.4157 38.5446 23.1084 38.4273 22.8217C38.3099 22.5349 38.1367 22.2744 37.9176 22.0553C37.6985 21.8362 37.438 21.663 37.1512 21.5457C36.8645 21.4283 36.5572 21.3693 36.2474 21.372C35.9376 21.3747 35.6314 21.4391 35.3467 21.5613C35.0621 21.6836 34.8046 21.8614 34.5893 22.0842L24.6913 31.9822L21.3897 28.6829C20.9496 28.2579 20.3602 28.0227 19.7484 28.028C19.1366 28.0333 18.5514 28.2787 18.1188 28.7113C17.6861 29.144 17.4407 29.7292 17.4354 30.341C17.4301 30.9528 17.6653 31.5422 18.0903 31.9822L22.8737 36.7679C23.112 37.0064 23.395 37.1955 23.7065 37.3246C24.018 37.4537 24.3518 37.5201 24.689 37.5201C25.0262 37.5201 25.36 37.4537 25.6715 37.3246C25.983 37.1955 26.266 37.0064 26.5043 36.7679L37.8887 25.3836Z" fill="white"/>
</g>
</g>
</svg>
