<svg width="56" height="56" viewBox="0 0 56 56" fill="none" xmlns="http://www.w3.org/2000/svg">
<g id="ph:share-bold">
<path id="Vector" d="M50.8572 24.6072L40.3572 35.1072C39.8641 35.6003 39.1952 35.8774 38.4978 35.8774C37.8004 35.8774 37.1316 35.6003 36.6384 35.1072C36.1453 34.6141 35.8683 33.9452 35.8683 33.2478C35.8683 32.5504 36.1453 31.8816 36.6384 31.3885L42.6562 25.375H36.0938C32.0191 25.3737 28.0595 26.7268 24.8378 29.2215C21.6161 31.7162 19.3149 35.211 18.2962 39.1563C18.2101 39.4901 18.059 39.8036 17.8516 40.079C17.6443 40.3545 17.3847 40.5863 17.0877 40.7614C16.7907 40.9365 16.4622 41.0514 16.1208 41.0995C15.7794 41.1477 15.4319 41.1281 15.0981 41.0419C14.7643 40.9557 14.4508 40.8046 14.1753 40.5973C13.8999 40.3899 13.6681 40.1303 13.493 39.8334C13.3179 39.5364 13.203 39.2078 13.1549 38.8665C13.1067 38.5251 13.1263 38.1776 13.2125 37.8438C14.5201 32.7703 17.478 28.2759 21.6204 25.0681C25.7628 21.8603 30.8545 20.1213 36.0938 20.125H42.6562L36.6428 14.105C36.1497 13.6119 35.8726 12.943 35.8726 12.2456C35.8726 11.5482 36.1497 10.8794 36.6428 10.3863C37.1359 9.89313 37.8048 9.61609 38.5022 9.61609C39.1996 9.61609 39.8684 9.89313 40.3616 10.3863L50.8616 20.8863C51.1063 21.1305 51.3004 21.4206 51.4327 21.74C51.5651 22.0595 51.6329 22.4019 51.6325 22.7476C51.6321 23.0934 51.5634 23.4357 51.4304 23.7548C51.2973 24.0739 51.1025 24.3636 50.8572 24.6072ZM42 44.625H9.625V19.25C9.625 18.5538 9.34844 17.8861 8.85616 17.3939C8.36387 16.9016 7.69619 16.625 7 16.625C6.30381 16.625 5.63613 16.9016 5.14384 17.3939C4.65156 17.8861 4.375 18.5538 4.375 19.25V45.5C4.375 46.6603 4.83594 47.7731 5.65641 48.5936C6.47688 49.4141 7.58968 49.875 8.75 49.875H42C42.6962 49.875 43.3639 49.5985 43.8562 49.1062C44.3484 48.6139 44.625 47.9462 44.625 47.25C44.625 46.5538 44.3484 45.8861 43.8562 45.3939C43.3639 44.9016 42.6962 44.625 42 44.625Z" fill="white"/>
</g>
</svg>
